<?xml version="1.0" encoding="UTF-8"?>
<svg xmlns="http://www.w3.org/2000/svg" xmlns:xlink="http://www.w3.org/1999/xlink" width="134.101" height="123.3" viewBox="0 0 134.101 123.3">
<defs>
<clipPath id="clip-0">
<rect x="0" y="0" width="115" height="118"/>
</clipPath>
<g id="source-5" clip-path="url(#clip-0)">
<path fill="none" stroke-width="1.19553" stroke-linecap="butt" stroke-linejoin="miter" stroke="rgb(0%, 0%, 0%)" stroke-opacity="1" stroke-miterlimit="10" d="M -0.00034375 0.00134375 L -0.00034375 -87.873656 L 85.038719 -87.873656 L 85.038719 0.00134375 Z M -0.00034375 0.00134375 " transform="matrix(1, 0, 0, -1, 0.598, 0.599)"/>
</g>
</defs>
<path fill-rule="nonzero" fill="rgb(0%, 0%, 39.99939%)" fill-opacity="1" stroke-width="0.79701" stroke-linecap="butt" stroke-linejoin="miter" stroke="rgb(0%, 0%, 0%)" stroke-opacity="1" stroke-miterlimit="10" d="M -0.00034375 0.00034375 L -0.00034375 -11.3395 L 85.038719 -11.3395 L 85.038719 0.00034375 Z M -0.00034375 0.00034375 " transform="matrix(1, 0, 0, -1, 0.598, 0.598)"/>
<path fill-rule="nonzero" fill="rgb(47.57843%, 46.009827%, 28.518677%)" fill-opacity="1" stroke-width="0.79701" stroke-linecap="butt" stroke-linejoin="miter" stroke="rgb(0%, 0%, 0%)" stroke-opacity="1" stroke-miterlimit="10" d="M -0.00034375 -28.347313 L -0.00034375 -53.859031 L 85.038719 -53.859031 L 85.038719 -28.347313 Z M -0.00034375 -28.347313 " transform="matrix(1, 0, 0, -1, 0.598, 0.598)"/>
<path fill-rule="nonzero" fill="rgb(0%, 39.99939%, 0%)" fill-opacity="1" stroke-width="0.79701" stroke-linecap="butt" stroke-linejoin="miter" stroke="rgb(0%, 0%, 0%)" stroke-opacity="1" stroke-miterlimit="10" d="M -0.00034375 -56.694969 L -0.00034375 -70.866844 L 85.038719 -70.866844 L 85.038719 -56.694969 Z M -0.00034375 -56.694969 " transform="matrix(1, 0, 0, -1, 0.598, 0.598)"/>
<path fill-rule="nonzero" fill="rgb(39.99939%, 19.999695%, 0%)" fill-opacity="1" stroke-width="0.79701" stroke-linecap="butt" stroke-linejoin="miter" stroke="rgb(0%, 0%, 0%)" stroke-opacity="1" stroke-miterlimit="10" d="M -0.00034375 -82.206688 L -0.00034375 -87.874656 L 85.038719 -87.874656 L 85.038719 -82.206688 Z M -0.00034375 -82.206688 " transform="matrix(1, 0, 0, -1, 0.598, 0.598)"/>
<use xlink:href="#source-5"/>
<path fill="none" stroke-width="0.79701" stroke-linecap="butt" stroke-linejoin="miter" stroke="rgb(0%, 0%, 0%)" stroke-opacity="1" stroke-miterlimit="10" d="M 87.874656 0.00034375 L 87.874656 -64.691063 " transform="matrix(1, 0, 0, -1, 0.598, 0.598)"/>
<path fill-rule="nonzero" fill="rgb(0%, 0%, 0%)" fill-opacity="1" stroke-width="0.79701" stroke-linecap="butt" stroke-linejoin="miter" stroke="rgb(0%, 0%, 0%)" stroke-opacity="1" stroke-miterlimit="10" d="M 4.532233 -0.00061375 C 3.977545 0.140011 1.528326 0.921261 0.0009825 1.772824 L 0.0009825 -1.770145 C 1.528326 -0.918582 3.977545 -0.137332 4.532233 -0.00061375 Z M 4.532233 -0.00061375 " transform="matrix(0, 1, 1, 0, 88.47327, 65.28808)"/>
</svg>
